<svg width="760" height="230" viewBox="0 0 760 230" fill="none" xmlns="http://www.w3.org/2000/svg">
  <defs>
    <linearGradient id="goldStroke" x1="80" y1="20" x2="640" y2="210" gradientUnits="userSpaceOnUse">
      <stop offset="0" stop-color="#F7DEA0"/>
      <stop offset="0.35" stop-color="#C99739"/>
      <stop offset="0.7" stop-color="#A67424"/>
      <stop offset="1" stop-color="#F5D88C"/>
    </linearGradient>
    <linearGradient id="goldFill" x1="270" y1="70" x2="490" y2="170" gradientUnits="userSpaceOnUse">
      <stop offset="0" stop-color="#F6E2A9"/>
      <stop offset="0.45" stop-color="#D1A14B"/>
      <stop offset="1" stop-color="#8C6220"/>
    </linearGradient>
    <filter id="glow" x="-20%" y="-20%" width="140%" height="140%">
      <feDropShadow dx="0" dy="6" stdDeviation="8" flood-color="#000000" flood-opacity="0.2"/>
    </filter>
  </defs>

  <g filter="url(#glow)">
    <path d="M165 115C165 74 198 41 239 41H521C562 41 595 74 595 115C595 156 562 189 521 189H239C198 189 165 156 165 115Z" stroke="url(#goldStroke)" stroke-width="8"/>
    <path d="M181 115C181 83 207 57 239 57H521C553 57 579 83 579 115C579 147 553 173 521 173H239C207 173 181 147 181 115Z" stroke="url(#goldStroke)" stroke-width="2.5" opacity="0.75"/>

    <path d="M171 112C134 107 116 89 110 58C126 76 144 83 170 83" stroke="url(#goldStroke)" stroke-width="6" stroke-linecap="round"/>
    <path d="M171 118C134 123 116 141 110 172C126 154 144 147 170 147" stroke="url(#goldStroke)" stroke-width="6" stroke-linecap="round"/>
    <path d="M589 112C626 107 644 89 650 58C634 76 616 83 590 83" stroke="url(#goldStroke)" stroke-width="6" stroke-linecap="round"/>
    <path d="M589 118C626 123 644 141 650 172C634 154 616 147 590 147" stroke="url(#goldStroke)" stroke-width="6" stroke-linecap="round"/>

    <path d="M128 58C140 36 156 25 181 19C168 35 168 52 179 70" stroke="url(#goldStroke)" stroke-width="5" stroke-linecap="round"/>
    <path d="M132 170C146 192 162 203 187 209C173 193 173 175 184 158" stroke="url(#goldStroke)" stroke-width="5" stroke-linecap="round"/>
    <path d="M632 58C620 36 604 25 579 19C592 35 592 52 581 70" stroke="url(#goldStroke)" stroke-width="5" stroke-linecap="round"/>
    <path d="M628 170C614 192 598 203 573 209C587 193 587 175 576 158" stroke="url(#goldStroke)" stroke-width="5" stroke-linecap="round"/>

    <circle cx="380" cy="28" r="9" fill="#F6EBD5" stroke="url(#goldStroke)" stroke-width="4"/>
    <circle cx="380" cy="202" r="9" fill="#F6EBD5" stroke="url(#goldStroke)" stroke-width="4"/>
    <path d="M349 34C356 53 368 63 380 67C392 63 404 53 411 34" stroke="url(#goldStroke)" stroke-width="6" stroke-linecap="round"/>
    <path d="M349 196C356 177 368 167 380 163C392 167 404 177 411 196" stroke="url(#goldStroke)" stroke-width="6" stroke-linecap="round"/>

    <text x="380" y="136" text-anchor="middle" fill="url(#goldFill)" font-family="Palatino Linotype, Book Antiqua, Georgia, serif" font-size="82" font-style="italic">M&amp;K</text>
  </g>
</svg>
